# xmcd
#
# Track frame offsets:
#	150
#	12311
#	27032
#	42306
#	61665
#	77294
#	90769
#	109148
#	120865
#	134496
#	150190
#	161582
#
# Disc length: 2338 seconds
#
# Revision: 0
# Processed by: cddbd v1.5.2PL0 Copyright (c) Steve Scherf et al.
# Submitted via: audiograbber 1.83.01
#
DISCID=7509200c
DTITLE=Georges Hamel - Merci De Votre Amitié
DYEAR=1900
DGENRE=Country
TTITLE0=Merci De Votre Amitié (Georges Hamel)
TTITLE1=Parents à Plein Temps (Denis Champoux)
TTITLE2=Ce Rêve Est Réalité (Denis Champoux)
TTITLE3=Il Demande à Dieu (Denis Champoux)
TTITLE4=Comme L'oiseau (Denis Champoux)
TTITLE5=Tu Ne M'as Jamais Pris Au Sérieux (Denis Chmapoux)
TTITLE6=Pour La Fête Des Mères (Denis Champoux)
TTITLE7=On Traversera Le Pont (Denis Champoux)
TTITLE8=Petit Gars (Denis Champoux)
TTITLE9=Le Soleil Brille (Denis Champoux)
TTITLE10=Vis-la Ta Vie (Denis Champoux)
TTITLE11=De La Musique Chez-moi (Denis Champoux)
EXTD=
EXTT0=
EXTT1=
EXTT2=
EXTT3=
EXTT4=
EXTT5=
EXTT6=
EXTT7=
EXTT8=
EXTT9=
EXTT10=
EXTT11=
PLAYORDER=
